<svg width="119" height="51" viewBox="0 0 119 51" fill="none" xmlns="http://www.w3.org/2000/svg">
<path d="M7.008 32.2C7.68 32.2 8.192 32.048 8.544 31.744C8.912 31.424 9.096 30.944 9.096 30.304C9.096 29.696 8.904 29.232 8.52 28.912C8.152 28.576 7.608 28.408 6.888 28.408C6.632 28.408 6.416 28.416 6.24 28.432C6.08 28.432 5.912 28.448 5.736 28.48V32.2H7.008ZM5.76 39.904C5.584 39.952 5.304 40 4.92 40.048C4.552 40.096 4.184 40.12 3.816 40.12C3.448 40.12 3.12 40.088 2.832 40.024C2.56 39.976 2.328 39.88 2.136 39.736C1.944 39.592 1.8 39.392 1.704 39.136C1.608 38.88 1.56 38.544 1.56 38.128V26.824C1.56 26.488 1.648 26.232 1.824 26.056C2.016 25.864 2.272 25.712 2.592 25.6C3.136 25.408 3.752 25.272 4.44 25.192C5.144 25.096 5.848 25.048 6.552 25.048C8.76 25.048 10.448 25.52 11.616 26.464C12.784 27.408 13.368 28.688 13.368 30.304C13.368 31.088 13.24 31.8 12.984 32.44C12.744 33.064 12.376 33.608 11.88 34.072C11.4 34.52 10.784 34.872 10.032 35.128C9.296 35.368 8.44 35.488 7.464 35.488H5.76V39.904ZM19.3453 39.976C19.1693 40.008 18.9053 40.048 18.5533 40.096C18.2173 40.16 17.8733 40.192 17.5213 40.192C17.1693 40.192 16.8493 40.168 16.5613 40.12C16.2893 40.072 16.0573 39.976 15.8653 39.832C15.6733 39.688 15.5213 39.496 15.4093 39.256C15.3133 39 15.2653 38.672 15.2653 38.272V24.352C15.4413 24.32 15.6973 24.28 16.0333 24.232C16.3853 24.168 16.7373 24.136 17.0893 24.136C17.4413 24.136 17.7533 24.16 18.0253 24.208C18.3133 24.256 18.5533 24.352 18.7453 24.496C18.9373 24.64 19.0813 24.84 19.1773 25.096C19.2893 25.336 19.3453 25.656 19.3453 26.056V39.976ZM26.9119 37.408C27.1839 37.408 27.4799 37.384 27.7999 37.336C28.1359 37.272 28.3839 37.192 28.5439 37.096V35.176L26.8159 35.32C26.3679 35.352 25.9999 35.448 25.7119 35.608C25.4239 35.768 25.2799 36.008 25.2799 36.328C25.2799 36.648 25.3999 36.912 25.6399 37.12C25.8959 37.312 26.3199 37.408 26.9119 37.408ZM26.7199 27.976C27.5839 27.976 28.3679 28.064 29.0719 28.24C29.7919 28.416 30.3999 28.688 30.8959 29.056C31.4079 29.408 31.7999 29.864 32.0719 30.424C32.3439 30.968 32.4799 31.616 32.4799 32.368V37.744C32.4799 38.16 32.3599 38.504 32.1199 38.776C31.8959 39.032 31.6239 39.256 31.3039 39.448C30.2639 40.072 28.7999 40.384 26.9119 40.384C26.0639 40.384 25.2959 40.304 24.6079 40.144C23.9359 39.984 23.3519 39.744 22.8559 39.424C22.3759 39.104 21.9999 38.696 21.7279 38.2C21.4719 37.704 21.3439 37.128 21.3439 36.472C21.3439 35.368 21.6719 34.52 22.3279 33.928C22.9839 33.336 23.9999 32.968 25.3759 32.824L28.5199 32.488V32.32C28.5199 31.856 28.3119 31.528 27.8959 31.336C27.4959 31.128 26.9119 31.024 26.1439 31.024C25.5359 31.024 24.9439 31.088 24.3679 31.216C23.7919 31.344 23.2719 31.504 22.8079 31.696C22.5999 31.552 22.4239 31.336 22.2799 31.048C22.1359 30.744 22.0639 30.432 22.0639 30.112C22.0639 29.696 22.1599 29.368 22.3519 29.128C22.5599 28.872 22.8719 28.656 23.2879 28.48C23.7519 28.304 24.2959 28.176 24.9199 28.096C25.5599 28.016 26.1599 27.976 26.7199 27.976ZM42.3666 32.608C42.3666 32.112 42.2226 31.752 41.9346 31.528C41.6626 31.288 41.2866 31.168 40.8066 31.168C40.4866 31.168 40.1666 31.208 39.8466 31.288C39.5426 31.368 39.2786 31.488 39.0546 31.648V39.976C38.8946 40.024 38.6386 40.072 38.2866 40.12C37.9506 40.168 37.5986 40.192 37.2306 40.192C36.8786 40.192 36.5586 40.168 36.2706 40.12C35.9986 40.072 35.7666 39.976 35.5746 39.832C35.3826 39.688 35.2306 39.496 35.1186 39.256C35.0226 39 34.9746 38.672 34.9746 38.272V31.072C34.9746 30.64 35.0626 30.288 35.2386 30.016C35.4306 29.744 35.6866 29.496 36.0066 29.272C36.5506 28.888 37.2306 28.576 38.0466 28.336C38.8786 28.096 39.7986 27.976 40.8066 27.976C42.6146 27.976 44.0066 28.376 44.9826 29.176C45.9586 29.96 46.4466 31.056 46.4466 32.464V39.976C46.2866 40.024 46.0306 40.072 45.6786 40.12C45.3426 40.168 44.9906 40.192 44.6226 40.192C44.2706 40.192 43.9506 40.168 43.6626 40.12C43.3906 40.072 43.1586 39.976 42.9666 39.832C42.7746 39.688 42.6226 39.496 42.5106 39.256C42.4146 39 42.3666 38.672 42.3666 38.272V32.608ZM53.0468 35.992C53.0468 36.408 53.1748 36.704 53.4308 36.88C53.7028 37.056 54.0788 37.144 54.5588 37.144C54.7988 37.144 55.0468 37.128 55.3028 37.096C55.5588 37.048 55.7828 36.992 55.9748 36.928C56.1188 37.104 56.2388 37.304 56.3348 37.528C56.4468 37.736 56.5028 37.992 56.5028 38.296C56.5028 38.904 56.2708 39.4 55.8068 39.784C55.3588 40.168 54.5588 40.36 53.4068 40.36C51.9988 40.36 50.9108 40.04 50.1428 39.4C49.3908 38.76 49.0148 37.72 49.0148 36.28V26.008C49.1908 25.96 49.4388 25.912 49.7588 25.864C50.0948 25.8 50.4468 25.768 50.8148 25.768C51.5188 25.768 52.0628 25.896 52.4468 26.152C52.8468 26.392 53.0468 26.912 53.0468 27.712V29.248H56.1908C56.2868 29.424 56.3748 29.648 56.4548 29.92C56.5508 30.176 56.5988 30.464 56.5988 30.784C56.5988 31.344 56.4708 31.752 56.2148 32.008C55.9748 32.248 55.6468 32.368 55.2308 32.368H53.0468V35.992ZM63.5681 37.408C63.8401 37.408 64.1361 37.384 64.4561 37.336C64.7921 37.272 65.0401 37.192 65.2001 37.096V35.176L63.4721 35.32C63.0241 35.352 62.6561 35.448 62.3681 35.608C62.0801 35.768 61.9361 36.008 61.9361 36.328C61.9361 36.648 62.0561 36.912 62.2961 37.12C62.5521 37.312 62.9761 37.408 63.5681 37.408ZM63.3761 27.976C64.2401 27.976 65.0241 28.064 65.7281 28.24C66.4481 28.416 67.0561 28.688 67.5521 29.056C68.0641 29.408 68.4561 29.864 68.7281 30.424C69.0001 30.968 69.1361 31.616 69.1361 32.368V37.744C69.1361 38.16 69.0161 38.504 68.7761 38.776C68.5521 39.032 68.2801 39.256 67.9601 39.448C66.9201 40.072 65.4561 40.384 63.5681 40.384C62.7201 40.384 61.9521 40.304 61.2641 40.144C60.5921 39.984 60.0081 39.744 59.5121 39.424C59.0321 39.104 58.6561 38.696 58.3841 38.2C58.1281 37.704 58.0001 37.128 58.0001 36.472C58.0001 35.368 58.3281 34.52 58.9841 33.928C59.6401 33.336 60.6561 32.968 62.0321 32.824L65.1761 32.488V32.32C65.1761 31.856 64.9681 31.528 64.5521 31.336C64.1521 31.128 63.5681 31.024 62.8001 31.024C62.1921 31.024 61.6001 31.088 61.0241 31.216C60.4481 31.344 59.9281 31.504 59.4641 31.696C59.2561 31.552 59.0801 31.336 58.9361 31.048C58.7921 30.744 58.7201 30.432 58.7201 30.112C58.7201 29.696 58.8161 29.368 59.0081 29.128C59.2161 28.872 59.5281 28.656 59.9441 28.48C60.4081 28.304 60.9521 28.176 61.5761 28.096C62.2161 28.016 62.8161 27.976 63.3761 27.976ZM79.8435 25.888C80.1155 25.728 80.5235 25.576 81.0675 25.432C81.6275 25.288 82.1875 25.216 82.7475 25.216C83.5475 25.216 84.2515 25.336 84.8595 25.576C85.4835 25.8 85.8835 26.16 86.0595 26.656C86.3475 27.488 86.6595 28.456 86.9955 29.56C87.3315 30.664 87.6675 31.808 88.0035 32.992C88.3395 34.16 88.6675 35.32 88.9875 36.472C89.3075 37.608 89.5875 38.616 89.8275 39.496C89.6355 39.72 89.3475 39.896 88.9635 40.024C88.5795 40.168 88.1235 40.24 87.5955 40.24C87.2115 40.24 86.8835 40.208 86.6115 40.144C86.3555 40.08 86.1395 39.984 85.9635 39.856C85.8035 39.728 85.6675 39.56 85.5555 39.352C85.4595 39.144 85.3715 38.904 85.2915 38.632L84.8595 36.976H80.5155C80.3875 37.456 80.2595 37.952 80.1315 38.464C80.0035 38.976 79.8755 39.472 79.7475 39.952C79.5235 40.032 79.2835 40.096 79.0275 40.144C78.7875 40.208 78.4915 40.24 78.1395 40.24C77.3235 40.24 76.7155 40.104 76.3155 39.832C75.9315 39.544 75.7395 39.152 75.7395 38.656C75.7395 38.432 75.7715 38.208 75.8355 37.984C75.8995 37.76 75.9715 37.496 76.0515 37.192C76.1635 36.76 76.3155 36.224 76.5075 35.584C76.7155 34.944 76.9395 34.256 77.1795 33.52C77.4195 32.768 77.6755 32 77.9475 31.216C78.2195 30.432 78.4755 29.696 78.7155 29.008C78.9555 28.304 79.1715 27.68 79.3635 27.136C79.5715 26.592 79.7315 26.176 79.8435 25.888ZM82.7235 28.984C82.4995 29.656 82.2435 30.408 81.9555 31.24C81.6835 32.056 81.4355 32.888 81.2115 33.736H84.1875C83.9635 32.872 83.7315 32.032 83.4915 31.216C83.2675 30.384 83.0595 29.64 82.8675 28.984H82.7235ZM91.3864 25.096C91.3864 24.488 91.5864 23.976 91.9864 23.56C92.4024 23.144 92.9464 22.936 93.6184 22.936C94.2904 22.936 94.8264 23.144 95.2264 23.56C95.6424 23.976 95.8504 24.488 95.8504 25.096C95.8504 25.704 95.6424 26.216 95.2264 26.632C94.8264 27.048 94.2904 27.256 93.6184 27.256C92.9464 27.256 92.4024 27.048 91.9864 26.632C91.5864 26.216 91.3864 25.704 91.3864 25.096ZM95.6584 39.976C95.4824 40.008 95.2184 40.048 94.8664 40.096C94.5304 40.16 94.1864 40.192 93.8344 40.192C93.4824 40.192 93.1624 40.168 92.8744 40.12C92.6024 40.072 92.3704 39.976 92.1784 39.832C91.9864 39.688 91.8344 39.496 91.7224 39.256C91.6264 39 91.5784 38.672 91.5784 38.272V28.504C91.7544 28.472 92.0104 28.432 92.3464 28.384C92.6984 28.32 93.0504 28.288 93.4024 28.288C93.7544 28.288 94.0664 28.312 94.3384 28.36C94.6264 28.408 94.8664 28.504 95.0584 28.648C95.2504 28.792 95.3944 28.992 95.4904 29.248C95.6024 29.488 95.6584 29.808 95.6584 30.208V39.976Z" fill="#F9FAFB"/>
<path fill-rule="evenodd" clip-rule="evenodd" d="M102.423 22.1788C99.9436 21.9716 96.7886 21.0721 93.5598 19.5331C89.8049 17.3347 83.4956 11.4605 84.0321 9.68942C85.8888 8.41467 93.5598 8.92858 97.6787 10.8918C100.168 12.0782 102.334 13.4699 103.985 14.8681C104.675 12.8322 105.8 10.5429 107.3 8.26186C109.99 4.842 116.67 -0.606822 118.352 0.16633C119.361 2.17955 117.806 9.70873 115.299 13.5212C112.999 17.018 110.333 19.7136 108.08 21.0366V30.3884C108.08 31.9504 106.814 33.2167 105.252 33.2167C103.69 33.2167 102.423 31.9504 102.423 30.3884V22.1788Z" fill="#F9FAFB"/>
<circle cx="105.163" cy="36.9767" r="3.02332" fill="#F9FAFB"/>
</svg>
