<svg width="191" height="149" viewBox="0 0 191 149" fill="none" xmlns="http://www.w3.org/2000/svg">
<path d="M12.789 97.5434C13.9682 97.5434 14.8667 97.2767 15.4844 96.7432C16.1301 96.1817 16.453 95.3394 16.453 94.2163C16.453 93.1493 16.1161 92.3351 15.4422 91.7736C14.7965 91.184 13.8419 90.8891 12.5784 90.8891C12.1292 90.8891 11.7501 90.9032 11.4413 90.9313C11.1605 90.9313 10.8657 90.9593 10.5568 91.0155V97.5434H12.789ZM10.599 111.062C10.2901 111.147 9.79876 111.231 9.12491 111.315C8.47914 111.399 7.83337 111.442 7.1876 111.442C6.54183 111.442 5.96625 111.385 5.46086 111.273C4.98355 111.189 4.57643 111.02 4.23951 110.768C3.90259 110.515 3.64989 110.164 3.48143 109.715C3.31297 109.266 3.22874 108.676 3.22874 107.946V88.1095C3.22874 87.5199 3.38316 87.0707 3.69201 86.7618C4.02893 86.4249 4.47816 86.1582 5.03971 85.9616C5.99432 85.6247 7.07529 85.386 8.2826 85.2457C9.51799 85.0772 10.7534 84.993 11.9888 84.993C15.8634 84.993 18.8255 85.8212 20.8752 87.4778C22.9248 89.1343 23.9496 91.3805 23.9496 94.2163C23.9496 95.592 23.725 96.8415 23.2757 97.9646C22.8546 99.0596 22.2088 100.014 21.3384 100.828C20.4961 101.615 19.4151 102.232 18.0955 102.682C16.804 103.103 15.3019 103.313 13.5892 103.313H10.599V111.062ZM34.4387 111.189C34.1298 111.245 33.6665 111.315 33.0488 111.399C32.4592 111.512 31.8556 111.568 31.2379 111.568C30.6202 111.568 30.0586 111.526 29.5533 111.442C29.0759 111.357 28.6688 111.189 28.3319 110.936C27.995 110.683 27.7282 110.347 27.5317 109.925C27.3632 109.476 27.279 108.901 27.279 108.199V83.7716C27.5879 83.7155 28.0371 83.6453 28.6267 83.561C29.2444 83.4487 29.8621 83.3926 30.4798 83.3926C31.0975 83.3926 31.645 83.4347 32.1223 83.5189C32.6277 83.6032 33.0488 83.7716 33.3858 84.0243C33.7227 84.277 33.9754 84.628 34.1439 85.0772C34.3404 85.4984 34.4387 86.0599 34.4387 86.7618V111.189ZM47.7166 106.682C48.1939 106.682 48.7133 106.64 49.2749 106.556C49.8645 106.444 50.2997 106.303 50.5804 106.135V102.766L47.5481 103.018C46.762 103.075 46.1162 103.243 45.6108 103.524C45.1054 103.805 44.8527 104.226 44.8527 104.787C44.8527 105.349 45.0633 105.812 45.4845 106.177C45.9337 106.514 46.6777 106.682 47.7166 106.682ZM47.3797 90.1311C48.8958 90.1311 50.2716 90.2855 51.507 90.5943C52.7704 90.9032 53.8374 91.3805 54.7078 92.0263C55.6062 92.644 56.2941 93.4442 56.7714 94.4269C57.2487 95.3815 57.4874 96.5186 57.4874 97.8382V107.272C57.4874 108.002 57.2768 108.606 56.8557 109.083C56.4626 109.532 55.9853 109.925 55.4237 110.262C53.5987 111.357 51.0297 111.905 47.7166 111.905C46.2285 111.905 44.8808 111.764 43.6735 111.484C42.4942 111.203 41.4694 110.782 40.599 110.22C39.7567 109.659 39.0969 108.943 38.6196 108.072C38.1704 107.202 37.9458 106.191 37.9458 105.04C37.9458 103.103 38.5213 101.615 39.6725 100.576C40.8237 99.5369 42.6066 98.8911 45.0212 98.6384L50.5383 98.0488V97.754C50.5383 96.9397 50.1733 96.3642 49.4433 96.0272C48.7414 95.6622 47.7166 95.4797 46.3689 95.4797C45.302 95.4797 44.2631 95.592 43.2523 95.8167C42.2416 96.0413 41.3291 96.3221 40.5148 96.659C40.1498 96.4063 39.841 96.0272 39.5883 95.5219C39.3356 94.9884 39.2092 94.4409 39.2092 93.8794C39.2092 93.1493 39.3777 92.5738 39.7146 92.1526C40.0796 91.7034 40.6271 91.3243 41.3571 91.0155C42.1714 90.7066 43.126 90.482 44.221 90.3416C45.3441 90.2013 46.397 90.1311 47.3797 90.1311ZM74.8367 98.2594C74.8367 97.389 74.584 96.7572 74.0786 96.3642C73.6013 95.943 72.9415 95.7324 72.0992 95.7324C71.5376 95.7324 70.9761 95.8026 70.4146 95.943C69.8811 96.0834 69.4178 96.294 69.0247 96.5747V111.189C68.744 111.273 68.2947 111.357 67.677 111.442C67.0874 111.526 66.4697 111.568 65.824 111.568C65.2063 111.568 64.6447 111.526 64.1393 111.442C63.662 111.357 63.2549 111.189 62.918 110.936C62.5811 110.683 62.3143 110.347 62.1178 109.925C61.9493 109.476 61.8651 108.901 61.8651 108.199V95.564C61.8651 94.8059 62.0195 94.1882 62.3284 93.7109C62.6653 93.2336 63.1145 92.7984 63.6761 92.4053C64.6307 91.7315 65.824 91.184 67.2559 90.7628C68.7159 90.3416 70.3303 90.1311 72.0992 90.1311C75.2719 90.1311 77.7146 90.833 79.4273 92.2368C81.14 93.6126 81.9963 95.5359 81.9963 98.0067V111.189C81.7156 111.273 81.2663 111.357 80.6486 111.442C80.059 111.526 79.4413 111.568 78.7955 111.568C78.1779 111.568 77.6163 111.526 77.1109 111.442C76.6336 111.357 76.2265 111.189 75.8896 110.936C75.5526 110.683 75.2859 110.347 75.0894 109.925C74.9209 109.476 74.8367 108.901 74.8367 108.199V98.2594ZM93.5784 104.198C93.5784 104.928 93.803 105.447 94.2523 105.756C94.7296 106.065 95.3894 106.219 96.2317 106.219C96.6529 106.219 97.0881 106.191 97.5373 106.135C97.9865 106.051 98.3796 105.952 98.7165 105.84C98.9692 106.149 99.1798 106.5 99.3483 106.893C99.5448 107.258 99.6431 107.707 99.6431 108.241C99.6431 109.308 99.2359 110.178 98.4217 110.852C97.6356 111.526 96.2317 111.863 94.2102 111.863C91.7394 111.863 89.8301 111.301 88.4824 110.178C87.1628 109.055 86.503 107.23 86.503 104.703V86.6776C86.8119 86.5934 87.2471 86.5091 87.8086 86.4249C88.3982 86.3126 89.0159 86.2564 89.6617 86.2564C90.8971 86.2564 91.8517 86.4811 92.5255 86.9303C93.2275 87.3514 93.5784 88.2639 93.5784 89.6678V92.3632H99.0956C99.264 92.672 99.4185 93.0651 99.5588 93.5424C99.7273 93.9917 99.8115 94.497 99.8115 95.0586C99.8115 96.0413 99.5869 96.7572 99.1377 97.2065C98.7165 97.6276 98.1409 97.8382 97.4109 97.8382H93.5784V104.198ZM112.041 106.682C112.519 106.682 113.038 106.64 113.6 106.556C114.189 106.444 114.625 106.303 114.905 106.135V102.766L111.873 103.018C111.087 103.075 110.441 103.243 109.936 103.524C109.43 103.805 109.178 104.226 109.178 104.787C109.178 105.349 109.388 105.812 109.809 106.177C110.259 106.514 111.003 106.682 112.041 106.682ZM111.705 90.1311C113.221 90.1311 114.596 90.2855 115.832 90.5943C117.095 90.9032 118.162 91.3805 119.033 92.0263C119.931 92.644 120.619 93.4442 121.096 94.4269C121.574 95.3815 121.812 96.5186 121.812 97.8382V107.272C121.812 108.002 121.602 108.606 121.181 109.083C120.787 109.532 120.31 109.925 119.749 110.262C117.924 111.357 115.355 111.905 112.041 111.905C110.553 111.905 109.206 111.764 107.998 111.484C106.819 111.203 105.794 110.782 104.924 110.22C104.082 109.659 103.422 108.943 102.945 108.072C102.495 107.202 102.271 106.191 102.271 105.04C102.271 103.103 102.846 101.615 103.997 100.576C105.149 99.5369 106.931 98.8911 109.346 98.6384L114.863 98.0488V97.754C114.863 96.9397 114.498 96.3642 113.768 96.0272C113.066 95.6622 112.041 95.4797 110.694 95.4797C109.627 95.4797 108.588 95.592 107.577 95.8167C106.566 96.0413 105.654 96.3221 104.84 96.659C104.475 96.4063 104.166 96.0272 103.913 95.5219C103.66 94.9884 103.534 94.4409 103.534 93.8794C103.534 93.1493 103.703 92.5738 104.04 92.1526C104.405 91.7034 104.952 91.3243 105.682 91.0155C106.496 90.7066 107.451 90.482 108.546 90.3416C109.669 90.2013 110.722 90.1311 111.705 90.1311ZM93.8798 118.467C94.3571 118.186 95.0731 117.92 96.0277 117.667C97.0104 117.414 97.9931 117.288 98.9758 117.288C100.38 117.288 101.615 117.498 102.682 117.92C103.777 118.313 104.479 118.944 104.788 119.815C105.293 121.275 105.841 122.973 106.43 124.911C107.02 126.848 107.609 128.856 108.199 130.933C108.789 132.983 109.364 135.018 109.926 137.04C110.487 139.033 110.979 140.802 111.4 142.347C111.063 142.74 110.558 143.048 109.884 143.273C109.21 143.526 108.41 143.652 107.483 143.652C106.809 143.652 106.234 143.596 105.756 143.484C105.307 143.371 104.928 143.203 104.619 142.978C104.339 142.754 104.1 142.459 103.903 142.094C103.735 141.729 103.58 141.308 103.44 140.83L102.682 137.924H95.059C94.8344 138.767 94.6098 139.637 94.3852 140.536C94.1606 141.434 93.936 142.304 93.7114 143.147C93.3183 143.287 92.8971 143.399 92.4479 143.484C92.0267 143.596 91.5073 143.652 90.8896 143.652C89.4577 143.652 88.3908 143.413 87.6888 142.936C87.015 142.431 86.6781 141.743 86.6781 140.872C86.6781 140.479 86.7342 140.086 86.8465 139.693C86.9588 139.3 87.0852 138.837 87.2256 138.303C87.4221 137.545 87.6888 136.605 88.0258 135.482C88.3908 134.359 88.7838 133.151 89.205 131.86C89.6261 130.54 90.0754 129.192 90.5527 127.817C91.03 126.441 91.4792 125.149 91.9004 123.942C92.3215 122.707 92.7006 121.612 93.0375 120.657C93.4025 119.702 93.6833 118.972 93.8798 118.467ZM98.9337 123.9C98.5406 125.079 98.0914 126.399 97.586 127.859C97.1087 129.291 96.6735 130.751 96.2804 132.239H101.503C101.11 130.723 100.703 129.249 100.281 127.817C99.8883 126.357 99.5233 125.051 99.1864 123.9H98.9337ZM114.135 117.077C114.135 116.01 114.486 115.112 115.188 114.382C115.918 113.652 116.873 113.287 118.052 113.287C119.231 113.287 120.172 113.652 120.874 114.382C121.604 115.112 121.969 116.01 121.969 117.077C121.969 118.144 121.604 119.043 120.874 119.773C120.172 120.503 119.231 120.868 118.052 120.868C116.873 120.868 115.918 120.503 115.188 119.773C114.486 119.043 114.135 118.144 114.135 117.077ZM121.632 143.189C121.323 143.245 120.86 143.315 120.242 143.399C119.653 143.512 119.049 143.568 118.431 143.568C117.814 143.568 117.252 143.526 116.747 143.442C116.269 143.357 115.862 143.189 115.525 142.936C115.188 142.683 114.922 142.347 114.725 141.925C114.557 141.476 114.472 140.901 114.472 140.199V123.058C114.781 123.001 115.23 122.931 115.82 122.847C116.438 122.735 117.055 122.679 117.673 122.679C118.291 122.679 118.838 122.721 119.316 122.805C119.821 122.889 120.242 123.058 120.579 123.31C120.916 123.563 121.169 123.914 121.337 124.363C121.534 124.784 121.632 125.346 121.632 126.048V143.189Z" fill="#F9FAFB"/>
<path fill-rule="evenodd" clip-rule="evenodd" d="M132.514 78.666C123.681 77.9283 112.444 74.7244 100.944 69.243C87.5701 61.4128 65.0983 40.4909 67.0092 34.1827C73.6221 29.6424 100.944 31.4728 115.614 38.4653C124.479 42.6909 132.195 47.6476 138.076 52.6274C140.534 45.3762 144.541 37.2224 149.883 29.0981C159.465 16.9175 183.257 -2.48958 189.246 0.264162C192.841 7.43465 187.3 34.2514 178.371 47.8304C170.182 60.2848 160.686 69.8858 152.661 74.5979V107.906C152.661 113.47 148.151 117.98 142.587 117.98C137.024 117.98 132.514 113.47 132.514 107.906V78.666Z" fill="#F9FAFB"/>
<circle cx="142.272" cy="131.371" r="10.7682" fill="#F9FAFB"/>
</svg>
